<svg width="118" height="100" viewBox="0 0 118 100" fill="none" xmlns="http://www.w3.org/2000/svg">
<path fill-rule="evenodd" clip-rule="evenodd" d="M78.1054 3C78.1054 1.34315 76.7622 0 75.1054 0H43.9458C42.2889 0 40.9458 1.34315 40.9458 3V9.79452C40.9458 11.4514 42.2889 12.7945 43.9458 12.7945H75.1054C76.7622 12.7945 78.1054 11.4514 78.1054 9.79452V3ZM22.366 14.3939C22.366 13.5106 23.0821 12.7946 23.9654 12.7946H95.0859C95.9692 12.7946 96.6852 13.5106 96.6852 14.3939V14.3939C96.6852 15.2772 95.9692 15.9932 95.0859 15.9932H23.9654C23.0821 15.9932 22.366 15.2772 22.366 14.3939V14.3939ZM106.482 59.596C106.482 81.9106 85.1604 100 58.8591 100C32.5578 100 11.2364 81.9106 11.2364 59.596C11.2364 53.4096 12.8752 47.5479 15.8045 42.3064C16.4885 41.0825 16.3415 39.5411 15.359 38.5408L1.36574 24.2942C-0.49805 22.3966 0.846241 19.192 3.506 19.192H55.8275C55.8481 19.192 55.8584 19.2167 55.8441 19.2313V19.2313C55.8293 19.2463 55.8407 19.2717 55.8618 19.2706C56.853 19.2184 57.8524 19.1919 58.8591 19.1919C59.8659 19.1919 60.8653 19.2184 61.8565 19.2706C61.8776 19.2717 61.889 19.2463 61.8742 19.2313V19.2313C61.8599 19.2167 61.8702 19.192 61.8907 19.192H114.212C116.872 19.192 118.216 22.3966 116.353 24.2942L102.359 38.5408C101.377 39.5411 101.23 41.0825 101.914 42.3064C104.843 47.5479 106.482 53.4096 106.482 59.596ZM91.5997 53.2829C91.5997 56.7696 88.2682 59.5961 84.1586 59.5961C80.0491 59.5961 76.7176 56.7696 76.7176 53.2829C76.7176 49.7963 80.0491 46.9698 84.1586 46.9698C88.2682 46.9698 91.5997 49.7963 91.5997 53.2829ZM33.5596 59.5961C37.6691 59.5961 41.0006 56.7696 41.0006 53.2829C41.0006 49.7963 37.6691 46.9698 33.5596 46.9698C29.45 46.9698 26.1185 49.7963 26.1185 53.2829C26.1185 56.7696 29.45 59.5961 33.5596 59.5961ZM64.8119 67.1717C64.8119 69.4322 63.0615 71.3458 60.648 71.9902C60.2231 72.1036 59.9856 72.5891 60.2243 72.9584V72.9584C60.6629 73.6374 61.2955 74.5406 62.0736 75.4443C63.6733 77.3021 65.7083 78.9511 67.8099 79.0087C69.6177 79.0581 71.6618 77.9457 73.3511 76.6832C74.1748 76.0676 74.8747 75.4467 75.3688 74.9791C75.6154 74.7458 75.8096 74.5518 75.9411 74.4173C76.0068 74.35 76.0567 74.2977 76.0897 74.2629L76.1261 74.2241L76.1344 74.2152L76.136 74.2134L76.1361 74.2133C76.136 74.2134 76.1359 74.2135 76.7176 74.7473C77.2992 75.2812 77.2991 75.2813 77.2989 75.2815L77.2985 75.2819L77.2974 75.2831L77.2939 75.287L77.2816 75.3002L77.237 75.3477C77.1984 75.3885 77.1424 75.4471 77.0703 75.5208C76.9262 75.6683 76.7173 75.877 76.454 76.1261C75.9285 76.6233 75.1814 77.2866 74.2964 77.948C72.5683 79.2394 70.1477 80.6522 67.7667 80.587C64.9394 80.5097 62.5098 78.3708 60.8771 76.4745C60.0389 75.5011 59.3634 74.5357 58.898 73.8152V73.8152C58.8798 73.787 58.8384 73.787 58.8202 73.8152V73.8152C58.3548 74.5357 57.6793 75.5011 56.8412 76.4745C55.2084 78.3708 52.7788 80.5097 49.9515 80.587C47.5705 80.6522 45.1499 79.2394 43.4219 77.948C42.5368 77.2866 41.7897 76.6233 41.2642 76.1261C41.0009 75.877 40.792 75.6683 40.6479 75.5208C40.5758 75.4471 40.5198 75.3885 40.4813 75.3477L40.4366 75.3002L40.4244 75.287L40.4208 75.2831L40.4197 75.2819L40.4193 75.2815C40.4191 75.2813 40.419 75.2812 41.0006 74.7473C41.5823 74.2135 41.5822 74.2134 41.5821 74.2133L41.5822 74.2134L41.5838 74.2152L41.5921 74.2241L41.6286 74.2629C41.6615 74.2977 41.7114 74.35 41.7772 74.4173C41.9086 74.5518 42.1028 74.7458 42.3494 74.9791C42.8436 75.4467 43.5434 76.0676 44.3671 76.6832C46.0565 77.9457 48.1005 79.0581 49.9083 79.0087C52.0099 78.9511 54.0449 77.3021 55.6446 75.4443C56.4227 74.5406 57.0553 73.6374 57.494 72.9584V72.9584C57.7326 72.5891 57.4951 72.1036 57.0703 71.9902C54.6567 71.3459 52.9062 69.4322 52.9062 67.1717C52.9062 64.3824 55.5714 62.1212 58.8591 62.1212C62.1467 62.1212 64.8119 64.3824 64.8119 67.1717Z" fill="#F9F1E9"/>
</svg>
