<svg width="143" height="131" viewBox="0 0 143 131" fill="none" xmlns="http://www.w3.org/2000/svg">
<path fill-rule="evenodd" clip-rule="evenodd" d="M94.7317 3C94.7317 1.34315 93.3886 0 91.7317 0H53.2072C51.5504 0 50.2072 1.34315 50.2072 3V13.7608C50.2072 15.4177 51.5504 16.7608 53.2072 16.7608H91.7317C93.3886 16.7608 94.7317 15.4177 94.7317 13.7608V3ZM27.9451 18.8561C27.9451 17.699 28.8831 16.761 30.0402 16.761H114.899C116.056 16.761 116.994 17.699 116.994 18.8561V18.8561C116.994 20.0132 116.056 20.9512 114.899 20.9512H30.0402C28.8831 20.9512 27.9451 20.0132 27.9451 18.8561V18.8561ZM128.732 78.0707C128.732 107.303 103.185 131 71.671 131C40.1568 131 14.6096 107.303 14.6096 78.0707C14.6096 69.6599 16.7245 61.7073 20.488 54.6455C21.1033 53.4912 20.9684 52.068 20.0942 51.0949L1.27421 30.1463C-0.460731 28.2152 0.909845 25.1414 3.50589 25.1414H68.0354C68.0621 25.1414 68.0762 25.173 68.0584 25.1929V25.1929C68.0399 25.2134 68.0556 25.2459 68.0831 25.2443C69.2696 25.1761 70.4659 25.1414 71.671 25.1414C72.876 25.1414 74.0723 25.1761 75.2588 25.2443C75.2864 25.2459 75.302 25.2134 75.2836 25.1929V25.1929C75.2658 25.173 75.2799 25.1414 75.3065 25.1414H139.836C142.432 25.1414 143.803 28.2152 142.068 30.1463L123.248 51.0949C122.374 52.068 122.239 53.4912 122.854 54.6456C126.617 61.7073 128.732 69.6599 128.732 78.0707ZM110.901 69.8006C110.901 74.3681 106.909 78.0708 101.985 78.0708C97.0607 78.0708 93.069 74.3681 93.069 69.8006C93.069 65.2331 97.0607 61.5304 101.985 61.5304C106.909 61.5304 110.901 65.2331 110.901 69.8006ZM41.3572 78.0708C46.2813 78.0708 50.273 74.3681 50.273 69.8006C50.273 65.2331 46.2813 61.5304 41.3572 61.5304C36.4331 61.5304 32.4414 65.2331 32.4414 69.8006C32.4414 74.3681 36.4331 78.0708 41.3572 78.0708ZM78.8036 87.9948C78.8036 91.3434 76.1216 94.111 72.6414 94.5502C72.5902 94.5567 72.5605 94.6124 72.5847 94.658V94.658C72.7227 94.9162 72.9275 95.2877 73.1918 95.7351C73.7215 96.6314 74.4856 97.8242 75.426 99.0183C76.3691 100.216 77.4717 101.392 78.6736 102.273C79.878 103.157 81.1323 103.708 82.3936 103.746C83.4724 103.778 84.6361 103.438 85.8087 102.857C86.9764 102.279 88.1063 101.486 89.1021 100.672C90.0955 99.8603 90.9394 99.0417 91.5354 98.4252C91.8329 98.1174 92.0674 97.8613 92.2265 97.6833C92.306 97.5943 92.3666 97.5249 92.4068 97.4785L92.4288 97.4529L92.4515 97.4265L92.462 97.4141L92.4641 97.4115L92.4644 97.4112C92.4644 97.4112 92.4643 97.4113 92.6195 97.5416L93.069 97.919C93.6736 98.4266 93.6735 98.4267 93.6733 98.4269L93.6729 98.4274L93.6717 98.4289L93.6677 98.4336L93.6535 98.4503C93.6414 98.4645 93.6238 98.485 93.6011 98.5113C93.5775 98.5386 93.5484 98.5721 93.5138 98.6114C93.4817 98.6479 93.4449 98.6894 93.4037 98.7355C93.2326 98.927 92.9841 99.1983 92.6707 99.5226C92.0448 100.17 91.155 101.034 90.1011 101.895C89.0495 102.754 87.8184 103.624 86.5094 104.272C85.2054 104.918 83.777 105.367 82.3463 105.324C80.6546 105.274 79.0951 104.541 77.7398 103.547C76.382 102.551 75.179 101.257 74.1855 99.9952C73.1894 98.7303 72.3861 97.4752 71.8325 96.5383V96.5383C71.7601 96.4158 71.5819 96.4158 71.5096 96.5383V96.5383C70.9559 97.4752 70.1526 98.7303 69.1565 99.9952C68.163 101.257 66.96 102.551 65.6022 103.547C64.2469 104.541 62.6874 105.274 60.9957 105.324C59.565 105.367 58.1366 104.918 56.8326 104.272C55.5237 103.624 54.2925 102.754 53.2409 101.895C52.187 101.034 51.2972 100.17 50.6714 99.5226C50.3579 99.1983 50.1094 98.927 49.9383 98.7355C49.8847 98.6756 49.8387 98.6235 49.8006 98.5799C49.7779 98.5539 49.7579 98.531 49.7409 98.5113L49.7088 98.474L49.6885 98.4503L49.6743 98.4336L49.6703 98.4289L49.6691 98.4274L49.6687 98.4269C49.6685 98.4267 49.6684 98.4266 50.2731 97.919C50.8777 97.4114 50.8777 97.4113 50.8776 97.4112L50.8779 97.4115L50.8801 97.4141L50.8905 97.4265C50.9002 97.4378 50.9151 97.4553 50.9352 97.4785C50.9754 97.5249 51.036 97.5943 51.1155 97.6833C51.2747 97.8613 51.5091 98.1174 51.8066 98.4252C52.4026 99.0417 53.2465 99.8603 54.24 100.672C55.2358 101.486 56.3657 102.279 57.5333 102.857C58.7059 103.438 59.8696 103.778 60.9485 103.746C62.2097 103.708 63.464 103.157 64.6684 102.273C65.8703 101.392 66.973 100.216 67.916 99.0183C68.8564 97.8242 69.6205 96.6314 70.1502 95.7351C70.4145 95.2877 70.6193 94.9162 70.7573 94.658V94.658C70.7815 94.6124 70.7518 94.5567 70.7006 94.5502C67.2203 94.1111 64.5383 91.3435 64.5383 87.9948C64.5383 84.3408 67.7317 81.3786 71.6709 81.3786C75.6102 81.3786 78.8036 84.3408 78.8036 87.9948Z" fill="#F9F1E9"/>
</svg>
