<svg width="61" height="60" viewBox="0 0 61 60" fill="none" xmlns="http://www.w3.org/2000/svg">
<path fill-rule="evenodd" clip-rule="evenodd" d="M40.8569 3C40.8569 1.34315 39.5138 0 37.8569 0H23.8606C22.2038 0 20.8606 1.34315 20.8606 3V4.6767C20.8606 6.33355 19.5175 7.6767 17.8606 7.6767H11.8221C11.2921 7.6767 10.8625 8.10632 10.8625 8.63629V8.63629C10.8625 9.16625 11.2921 9.59587 11.8221 9.59587H49.8955C50.4254 9.59587 50.8551 9.16625 50.8551 8.63629V8.63629C50.8551 8.10632 50.4254 7.6767 49.8955 7.6767L43.8569 7.67671C42.2001 7.67671 40.8569 6.33356 40.8569 4.67671V3ZM28.8892 11.5622C28.8766 11.5629 28.8694 11.5481 28.8777 11.5386V11.5386C28.8858 11.5295 28.8793 11.5151 28.8671 11.5151H3.50585C0.923645 11.5151 -0.452146 14.5605 1.25473 16.4981L6.57143 22.5335C7.42273 23.4999 7.54432 24.8942 7.00447 26.0634C5.63379 29.0322 4.87344 32.3109 4.87344 35.7575C4.87344 49.1463 16.3469 60 30.5001 60C44.6534 60 56.1269 49.1463 56.1269 35.7575C56.1269 32.3109 55.3665 29.0322 53.9958 26.0634C53.456 24.8942 53.5776 23.4999 54.4289 22.5335L59.7455 16.4981C61.4524 14.5605 60.0766 11.5151 57.4944 11.5151H32.1332C32.121 11.5151 32.1145 11.5295 32.1226 11.5386V11.5386C32.1309 11.5481 32.1237 11.5629 32.1111 11.5622C31.5783 11.5309 31.0412 11.5151 30.5001 11.5151C29.9591 11.5151 29.4219 11.5309 28.8892 11.5622ZM48.1185 31.9696C48.1185 34.0616 46.3258 35.7575 44.1143 35.7575C41.9029 35.7575 40.1102 34.0616 40.1102 31.9696C40.1102 29.8777 41.9029 28.1818 44.1143 28.1818C46.3258 28.1818 48.1185 29.8777 48.1185 31.9696ZM16.886 35.7575C19.0974 35.7575 20.8901 34.0616 20.8901 31.9696C20.8901 29.8777 19.0974 28.1818 16.886 28.1818C14.6745 28.1818 12.8818 29.8777 12.8818 31.9696C12.8818 34.0616 14.6745 35.7575 16.886 35.7575ZM33.7035 40.303C33.7035 41.5475 32.9104 42.6168 31.7763 43.0833C31.5572 43.1734 31.4422 43.4313 31.561 43.6363V43.6363C31.7926 44.036 32.1254 44.5655 32.5329 45.0931C32.9431 45.6244 33.4112 46.1303 33.9083 46.5022C34.4082 46.8761 34.8856 47.0761 35.3292 47.0896C35.7133 47.1013 36.1608 46.9771 36.651 46.7296C37.136 46.4846 37.6155 46.1429 38.0475 45.7829C38.4772 45.4248 38.8437 45.0624 39.1034 44.7885C39.2327 44.6521 39.3342 44.5389 39.4024 44.4611C39.4365 44.4222 39.4622 44.3922 39.4788 44.3726L39.4968 44.3513L39.5005 44.3468L39.5008 44.3465C39.5007 44.3466 39.5006 44.3467 40.1102 44.8484C40.7197 45.3502 40.7196 45.3503 40.7195 45.3505L40.7191 45.3508L40.7184 45.3518L40.7161 45.3546L40.7087 45.3634L40.6831 45.3938C40.6612 45.4196 40.6299 45.4561 40.5899 45.5018C40.5098 45.5932 40.3944 45.7217 40.2493 45.8747C39.9602 46.1797 39.5481 46.5878 39.0583 46.9959C38.5709 47.4021 37.99 47.8222 37.3628 48.139C36.7407 48.4532 36.0241 48.6905 35.2811 48.6679C34.3985 48.6409 33.6122 48.2525 32.9625 47.7666C32.3101 47.2785 31.7426 46.6532 31.2832 46.0582V46.0582C30.8946 45.5551 30.1056 45.5551 29.7171 46.0582V46.0582C29.2576 46.6532 28.6902 47.2785 28.0377 47.7666C27.3881 48.2525 26.6018 48.6409 25.7192 48.6679C24.9762 48.6905 24.2596 48.4532 23.6375 48.139C23.0103 47.8222 22.4294 47.4021 21.942 46.9959C21.4522 46.5878 21.0401 46.1797 20.751 45.8747C20.6059 45.7217 20.4905 45.5932 20.4104 45.5018C20.3704 45.4561 20.3391 45.4196 20.3172 45.3938L20.2916 45.3634L20.2842 45.3546L20.2819 45.3518L20.2811 45.3508L20.2808 45.3505C20.2807 45.3503 20.2806 45.3502 20.8901 44.8484C21.4997 44.3467 21.4996 44.3466 21.4995 44.3465L21.4998 44.3468L21.5035 44.3513L21.5215 44.3726C21.5381 44.3922 21.5638 44.4222 21.5979 44.4611C21.6661 44.5389 21.7676 44.6521 21.8969 44.7885C22.1565 45.0624 22.5231 45.4248 22.9527 45.7829C23.3848 46.1429 23.8643 46.4846 24.3493 46.7296C24.8395 46.9771 25.287 47.1013 25.6711 47.0896C26.1147 47.0761 26.5921 46.8761 27.092 46.5022C27.5891 46.1303 28.0572 45.6244 28.4674 45.0931C28.8749 44.5655 29.2077 44.036 29.4393 43.6363V43.6363C29.558 43.4313 29.4431 43.1734 29.224 43.0833C28.0899 42.6168 27.2968 41.5475 27.2968 40.303C27.2968 38.6294 28.731 37.2727 30.5001 37.2727C32.2693 37.2727 33.7035 38.6294 33.7035 40.303Z" fill="#F9F1E9"/>
</svg>
