<svg width="24" height="28" viewBox="0 0 24 28" fill="none" xmlns="http://www.w3.org/2000/svg">
<path fill-rule="evenodd" clip-rule="evenodd" d="M16.6576 2.23152C16.6576 1.27792 15.8845 0.504883 14.9309 0.504883H9.38913C8.43554 0.504883 7.6625 1.27792 7.6625 2.23151C7.6625 3.18511 6.88946 3.95815 5.93587 3.95815H3.59689C3.35849 3.95815 3.16523 4.15141 3.16523 4.3898C3.16523 4.6282 3.35849 4.82146 3.59689 4.82146H20.7237C20.9621 4.82146 21.1554 4.6282 21.1554 4.3898C21.1554 4.15141 20.9621 3.95815 20.7237 3.95815L18.3842 3.95815C17.4306 3.95815 16.6576 3.18511 16.6576 2.23152ZM23.5278 16.5899C23.5278 22.6127 18.3666 27.4951 12 27.4951C5.63333 27.4951 0.472135 22.6127 0.472135 16.5899C0.472135 15.3504 0.690761 14.1591 1.09353 13.0488C1.47172 12.0062 1.38307 10.8083 0.649958 9.97608C-0.819963 8.30745 0.364827 5.6848 2.58856 5.6848H11.2654C11.2709 5.6848 11.2738 5.69127 11.2702 5.69539C11.2664 5.69964 11.2697 5.7063 11.2753 5.70597C11.515 5.69191 11.7566 5.68478 12 5.68478C12.2434 5.68478 12.485 5.69191 12.7247 5.70598C12.7304 5.70631 12.7336 5.69964 12.7299 5.69539C12.7262 5.69127 12.7292 5.6848 12.7346 5.6848H21.4114C23.6352 5.6848 24.82 8.30748 23.35 9.97613C22.6169 10.8083 22.5283 12.0062 22.9065 13.0488C23.3092 14.1592 23.5278 15.3504 23.5278 16.5899ZM19.9259 14.886C19.9259 15.8271 19.1194 16.59 18.1247 16.59C17.1299 16.59 16.3234 15.8271 16.3234 14.886C16.3234 13.945 17.1299 13.1821 18.1247 13.1821C19.1194 13.1821 19.9259 13.945 19.9259 14.886ZM5.87625 16.59C6.87104 16.59 7.67748 15.8271 7.67748 14.886C7.67748 13.945 6.87104 13.1821 5.87625 13.1821C4.88147 13.1821 4.07503 13.945 4.07503 14.886C4.07503 15.8271 4.88147 16.59 5.87625 16.59ZM13.441 18.6347C13.441 19.0631 13.232 19.4454 12.9052 19.6953C12.8368 19.7477 12.8104 19.8418 12.8536 19.9163C12.9513 20.0851 13.0905 20.3061 13.2587 20.524C13.4297 20.7454 13.6129 20.9401 13.7938 21.0754C13.9775 21.2129 14.1073 21.251 14.1861 21.2534C14.2601 21.2556 14.3874 21.2309 14.5716 21.1378C14.7507 21.0474 14.9385 20.9153 15.1176 20.766C15.2943 20.6187 15.4467 20.4682 15.5554 20.3536C15.6092 20.2968 15.651 20.2501 15.6785 20.2188L15.6954 20.1994L15.7082 20.1844L15.7141 20.1774C15.714 20.1775 15.7139 20.1776 16.3235 20.6793C16.933 21.1811 16.9329 21.1812 16.9328 21.1814L16.9325 21.1817L16.9319 21.1824L16.9304 21.1842L16.9261 21.1894L16.9125 21.2056L16.8837 21.2392L16.8659 21.2596C16.8266 21.3044 16.7709 21.3664 16.7013 21.4398C16.5632 21.5856 16.3653 21.7817 16.1284 21.979C15.8939 22.1744 15.6047 22.385 15.2834 22.5473C14.9673 22.7069 14.5709 22.8448 14.1379 22.8316C13.6202 22.8158 13.1815 22.5892 12.8481 22.3398C12.5118 22.0883 12.2293 21.7742 12.009 21.489C12.0045 21.4832 11.9958 21.4832 11.9913 21.489C11.771 21.7742 11.4885 22.0883 11.1522 22.3398C10.8188 22.5892 10.3801 22.8158 9.86235 22.8316C9.42939 22.8448 9.03301 22.7069 8.71687 22.5473C8.39561 22.385 8.10641 22.1744 7.87191 21.979C7.63503 21.7816 7.43713 21.5856 7.29895 21.4398C7.22936 21.3664 7.17365 21.3044 7.13438 21.2595C7.11471 21.2371 7.09908 21.2189 7.0878 21.2056L7.07417 21.1894L7.06986 21.1842L7.06834 21.1824L7.06775 21.1817L7.06749 21.1814C7.06737 21.1812 7.06726 21.1811 7.6768 20.6793C8.28634 20.1776 8.28624 20.1775 8.28614 20.1774L8.29207 20.1844L8.30969 20.2049L8.3218 20.2188C8.34924 20.2501 8.3911 20.2968 8.44493 20.3536C8.5536 20.4682 8.70594 20.6187 8.88269 20.766C9.06182 20.9153 9.24961 21.0474 9.42868 21.1378C9.61288 21.2309 9.74017 21.2556 9.81419 21.2534C9.89298 21.251 10.0228 21.2129 10.2065 21.0754C10.3874 20.9401 10.5706 20.7454 10.7416 20.5239C10.9098 20.3061 11.0489 20.085 11.1467 19.9163C11.1899 19.8418 11.1635 19.7478 11.0951 19.6956C10.7681 19.4457 10.559 19.0633 10.559 18.6347C10.559 17.8818 11.2042 17.2715 12 17.2715C12.7958 17.2715 13.441 17.8818 13.441 18.6347ZM12 19.9978H12.0001C12.0002 19.9978 12.0002 19.9979 12.0002 19.9979C12.0002 19.998 12.0001 19.998 12.0001 19.9979L12 19.9979C11.9999 19.9979 12 19.9978 12 19.9978Z" fill="#F9F1E9"/>
</svg>
