<svg width="38" height="40" viewBox="0 0 38 40" fill="none" xmlns="http://www.w3.org/2000/svg">
<path d="M30.875 20.7162V17.5551H28.5V21.2224C28.5001 21.5466 28.6252 21.8575 28.8479 22.0867L32.0625 25.3959V27.3345H5.9375V25.3959L9.15206 22.0867C9.37478 21.8575 9.49993 21.5466 9.5 21.2224V16.3327C9.49694 14.615 9.93421 12.927 10.7677 11.4389C11.6011 9.9509 12.8012 8.7156 14.2468 7.85777C15.6924 6.99994 17.3323 6.54995 19.0009 6.55325C20.6694 6.55655 22.3076 7.01302 23.75 7.87656V5.14346C22.6196 4.62827 21.4173 4.29992 20.1875 4.17053V1.66357H17.8125V4.17053C14.8849 4.47715 12.1718 5.89033 10.1977 8.1368C8.22361 10.3833 7.12881 13.3035 7.125 16.3327V20.7162L3.91044 24.0254C3.68772 24.2546 3.56257 24.5655 3.5625 24.8897V28.557C3.5625 28.8812 3.68761 29.1921 3.91031 29.4213C4.13301 29.6506 4.43506 29.7794 4.75 29.7794H13.0625V31.0018C13.0625 32.6228 13.6881 34.1775 14.8016 35.3237C15.9151 36.47 17.4253 37.1139 19 37.1139C20.5747 37.1139 22.0849 36.47 23.1984 35.3237C24.3119 34.1775 24.9375 32.6228 24.9375 31.0018V29.7794H33.25C33.5649 29.7794 33.867 29.6506 34.0897 29.4213C34.3124 29.1921 34.4375 28.8812 34.4375 28.557V24.8897C34.4374 24.5655 34.3123 24.2546 34.0896 24.0254L30.875 20.7162ZM22.5625 31.0018C22.5625 31.9744 22.1872 32.9072 21.5191 33.595C20.851 34.2827 19.9448 34.6691 19 34.6691C18.0552 34.6691 17.149 34.2827 16.4809 33.595C15.8128 32.9072 15.4375 31.9744 15.4375 31.0018V29.7794H22.5625V31.0018Z" fill="#392A2A"/>
<path d="M30.875 15.1102C33.4984 15.1102 35.625 12.921 35.625 10.2205C35.625 7.52001 33.4984 5.33081 30.875 5.33081C28.2516 5.33081 26.125 7.52001 26.125 10.2205C26.125 12.921 28.2516 15.1102 30.875 15.1102Z" fill="#392A2A"/>
</svg>
