<svg width="40" height="40" viewBox="0 0 40 40" fill="none" xmlns="http://www.w3.org/2000/svg">
<g clip-path="url(#clip0_2031_943)">
<path d="M40 20C40 8.9543 31.0457 0 20 0C8.9543 0 0 8.9543 0 20C0 31.0457 8.9543 40 20 40C31.0457 40 40 31.0457 40 20Z" fill="#B99E7F"/>
<path d="M11.25 26.25C12.9759 26.25 14.375 24.8509 14.375 23.125C14.375 21.3991 12.9759 20 11.25 20C9.52411 20 8.125 21.3991 8.125 23.125C8.125 24.8509 9.52411 26.25 11.25 26.25Z" fill="#EAC0B3"/>
<path d="M11.25 25.625H21.875V41.1688C21.875 41.1688 19.5981 42.5 16.5625 42.5C13.5269 42.5 11.25 40.3269 11.25 40.3269V25.625Z" fill="#EAC0B3"/>
<path d="M21.7566 33.195C21.7566 36.5606 21.2129 36.2419 17.6735 36.2419C14.1341 36.2419 12.501 33.5137 12.501 30.1481C12.501 26.7831 12.3666 23.75 15.2229 23.75C23.2997 24.0475 21.7566 29.8294 21.7566 33.195Z" fill="#C99688"/>
<path d="M28.6788 22.5625C28.6788 28.1388 27.8126 34.9956 20.9376 34.9956C14.0626 34.9956 10.8926 28.1388 10.8926 22.5625C9.3751 15.9375 9.6876 8.125 20.0001 8.125C30.3126 8.125 28.6788 16.9856 28.6788 22.5625Z" fill="#F5D0C5"/>
<path d="M23.75 25.625H23.125C22.7798 25.625 22.5 25.9048 22.5 26.25C22.5 26.5952 22.7798 26.875 23.125 26.875H23.75C24.0952 26.875 24.375 26.5952 24.375 26.25C24.375 25.9048 24.0952 25.625 23.75 25.625Z" fill="#EAC0B3"/>
<path d="M23.75 37.5H10C6.8934 37.5 4.375 40.0184 4.375 43.125V46.25C4.375 49.3566 6.8934 51.875 10 51.875H23.75C26.8566 51.875 29.375 49.3566 29.375 46.25V43.125C29.375 40.0184 26.8566 37.5 23.75 37.5Z" fill="#B99E7F"/>
<path d="M10.625 36.25H22.5V38.125C22.5 38.125 19.375 38.75 16.5625 38.75C13.75 38.75 10.625 38.125 10.625 38.125V36.25Z" fill="#B99E7F"/>
<path d="M10.625 36.25H22.5V37.5C22.5 37.5 20.625 38.4375 16.5625 38.4375C12.5 38.4375 10.625 37.5 10.625 37.5V36.25Z" fill="#362ABC"/>
<path d="M10.3125 36.875C10.3125 36.5435 10.4442 36.2255 10.6786 35.9911C10.913 35.7567 11.231 35.625 11.5625 35.625H21.5625C21.894 35.625 22.212 35.7567 22.4464 35.9911C22.6808 36.2255 22.8125 36.5435 22.8125 36.875C22.8125 36.875 19.6875 37.5 16.5625 37.5C13.4375 37.5 10.3125 36.875 10.3125 36.875Z" fill="#B99E7F"/>
<path fill-rule="evenodd" clip-rule="evenodd" d="M30 15.625C29.9997 12.6686 28.8356 9.83113 26.7596 7.72628C24.6835 5.62143 21.8624 4.41837 18.9063 4.37731C15.9501 4.33624 13.0967 5.46047 10.963 7.50684C8.82924 9.55321 7.58682 12.3572 7.50437 15.3125H7.5V40.625H14.375V21.6231C15.9281 21.3244 18.6125 20.6669 22.005 19.2756C25.42 17.875 27.5506 16.5513 28.6725 15.7525C28.8237 17.33 28.7713 18.9775 28.7225 20.5088C28.7 21.225 28.6781 21.915 28.6781 22.5619C28.6781 22.8169 28.6731 23.0731 28.6625 23.33C28.8069 23.2844 28.9419 23.2344 29.0619 23.18C29.9994 22.7525 29.9994 22.1819 29.9994 22.1819V15.625H30ZM9.375 20.625C8.92622 20.9607 8.57641 21.4114 8.3625 21.9294C8.0971 22.5704 8.05254 23.2815 8.23586 23.9506C8.41918 24.6197 8.81995 25.2088 9.375 25.625V20.625Z" fill="#392A2A"/>
<path d="M18.0806 28.75C18.0806 28.5842 18.1464 28.4253 18.2636 28.3081C18.3808 28.1908 18.5398 28.125 18.7056 28.125H24.4199C24.5857 28.125 24.7447 28.1908 24.8619 28.3081C24.9791 28.4253 25.0449 28.5842 25.0449 28.75C25.0449 29.5788 24.7157 30.3737 24.1296 30.9597C23.5436 31.5458 22.7487 31.875 21.9199 31.875H21.2056C20.3768 31.875 19.5819 31.5458 18.9959 30.9597C18.4098 30.3737 18.0806 29.5788 18.0806 28.75Z" fill="#66253C"/>
<path fill-rule="evenodd" clip-rule="evenodd" d="M22.9718 31.6938C22.6342 31.8142 22.2783 31.8755 21.9199 31.875H21.2055C20.3983 31.875 19.6225 31.5627 19.0404 31.0035C18.4584 30.4443 18.1153 29.6815 18.083 28.875C18.5605 28.6963 19.2693 28.7169 19.9686 28.7375C20.1911 28.7438 20.4124 28.75 20.6249 28.75C22.0061 28.75 23.1249 29.7294 23.1249 30.9375C23.1249 31.2031 23.0705 31.4581 22.9718 31.6938Z" fill="#B03E67"/>
<path d="M18.75 28.125H25V28.75C25 28.9158 24.9342 29.0747 24.8169 29.1919C24.6997 29.3092 24.5408 29.375 24.375 29.375H19.375C19.2092 29.375 19.0503 29.3092 18.9331 29.1919C18.8158 29.0747 18.75 28.9158 18.75 28.75V28.125Z" fill="white"/>
<path d="M20.625 23.4375C20.625 22.9197 20.2053 22.5 19.6875 22.5C19.1697 22.5 18.75 22.9197 18.75 23.4375V24.0625C18.75 24.5803 19.1697 25 19.6875 25C20.2053 25 20.625 24.5803 20.625 24.0625V23.4375Z" fill="#392A2A"/>
<path d="M26.875 23.4375C26.875 22.9197 26.4553 22.5 25.9375 22.5C25.4197 22.5 25 22.9197 25 23.4375V24.0625C25 24.5803 25.4197 25 25.9375 25C26.4553 25 26.875 24.5803 26.875 24.0625V23.4375Z" fill="#392A2A"/>
</g>
<defs>
<clipPath id="clip0_2031_943">
<rect width="40" height="40" rx="20" fill="white"/>
</clipPath>
</defs>
</svg>
